# xmcd
#
# Track frame offsets:
#	152
#	23438
#	41042
#	57536
#	71290
#	91777
#	111811
#	142876
#	158577
#	172977
#	193893
#
# Disc length: 3005 seconds
#
# Revision: 1
# Processed by: cddbd v1.5.2PL0 Copyright (c) Steve Scherf et al.
# Submitted via: audiograbber 1.83.01
#
DISCID=860bbb0b
DTITLE=Mike McClennan - Until the Song is Done
DYEAR=1900
DGENRE=
TTITLE0=Carry Me
TTITLE1=The Gamble
TTITLE2=Love Survives
TTITLE3=Midnight Flight
TTITLE4=Room Service
TTITLE5=Now The Rodeos Are Gone
TTITLE6=Takin the Tide
TTITLE7=Lovers Never Wind Up as Friends
TTITLE8=My Old Guitar and Me
TTITLE9=I Had an Old Dog 
TTITLE10=Sail Tonight
EXTD=
EXTT0=
EXTT1=
EXTT2=
EXTT3=
EXTT4=
EXTT5=
EXTT6=
EXTT7=
EXTT8=
EXTT9=
EXTT10=
PLAYORDER=
